<svg width="40" height="40" viewBox="0 0 40 40" fill="none" xmlns="http://www.w3.org/2000/svg">
<path d="M33.3337 21.6667C33.3337 30.0001 27.5003 34.1667 20.567 36.5834C20.2039 36.7064 19.8096 36.7005 19.4503 36.5667C12.5003 34.1667 6.66699 30.0001 6.66699 21.6667V10.0001C6.66699 9.55803 6.84259 9.13411 7.15515 8.82155C7.46771 8.50899 7.89163 8.33339 8.33366 8.33339C11.667 8.33339 15.8337 6.33339 18.7337 3.80006C19.0867 3.49839 19.5359 3.33264 20.0003 3.33264C20.4647 3.33264 20.9139 3.49839 21.267 3.80006C24.1837 6.35006 28.3337 8.33339 31.667 8.33339C32.109 8.33339 32.5329 8.50899 32.8455 8.82155C33.1581 9.13411 33.3337 9.55803 33.3337 10.0001V21.6667Z" stroke="#B7131A" stroke-width="2" stroke-linecap="round" stroke-linejoin="round"/>
<path d="M10.627 31.5166C11.3381 29.6036 12.6177 27.954 14.2937 26.7893C15.9697 25.6246 17.9619 25.0007 20.0029 25.0012C22.0438 25.0018 24.0357 25.6268 25.7111 26.7924C27.3865 27.9579 28.6651 29.6082 29.3753 31.5216" stroke="#B7131A" stroke-width="2" stroke-linecap="round" stroke-linejoin="round"/>
<path d="M19.9997 25C23.6816 25 26.6663 22.0152 26.6663 18.3333C26.6663 14.6514 23.6816 11.6666 19.9997 11.6666C16.3178 11.6666 13.333 14.6514 13.333 18.3333C13.333 22.0152 16.3178 25 19.9997 25Z" stroke="#B7131A" stroke-width="2" stroke-linecap="round" stroke-linejoin="round"/>
</svg>
