<svg width="40" height="40" viewBox="0 0 40 40" fill="none" xmlns="http://www.w3.org/2000/svg">
<path d="M5 18.3334H10C10.8841 18.3334 11.7319 18.6846 12.357 19.3097C12.9821 19.9348 13.3333 20.7827 13.3333 21.6667V26.6667C13.3333 27.5508 12.9821 28.3986 12.357 29.0237C11.7319 29.6488 10.8841 30 10 30H8.33333C7.44928 30 6.60143 29.6488 5.97631 29.0237C5.35119 28.3986 5 27.5508 5 26.6667V18.3334ZM5 18.3334C5 16.3635 5.38799 14.413 6.14181 12.5931C6.89563 10.7732 8.00052 9.11965 9.3934 7.72677C10.7863 6.33389 12.4399 5.229 14.2597 4.47518C16.0796 3.72136 18.0302 3.33337 20 3.33337C21.9698 3.33337 23.9204 3.72136 25.7403 4.47518C27.5601 5.229 29.2137 6.33389 30.6066 7.72677C31.9995 9.11965 33.1044 10.7732 33.8582 12.5931C34.612 14.413 35 16.3635 35 18.3334M35 18.3334V26.6667C35 27.5508 34.6488 28.3986 34.0237 29.0237C33.3986 29.6488 32.5507 30 31.6667 30H30C29.1159 30 28.2681 29.6488 27.643 29.0237C27.0179 28.3986 26.6667 27.5508 26.6667 26.6667V21.6667C26.6667 20.7827 27.0179 19.9348 27.643 19.3097C28.2681 18.6846 29.1159 18.3334 30 18.3334H35Z" stroke="#B7131A" stroke-width="2" stroke-linecap="round" stroke-linejoin="round"/>
<path d="M35 26.6666V30C35 31.7681 34.2976 33.4638 33.0474 34.714C31.7971 35.9642 30.1014 36.6666 28.3333 36.6666H20" stroke="#B7131A" stroke-width="2" stroke-linecap="round" stroke-linejoin="round"/>
</svg>
