<svg width="40" height="40" viewBox="0 0 40 40" fill="none" xmlns="http://www.w3.org/2000/svg">
<path d="M18.3333 23.3333H21.6667C22.5507 23.3333 23.3986 22.9821 24.0237 22.357C24.6488 21.7319 25 20.884 25 20C25 19.1159 24.6488 18.2681 24.0237 17.6429C23.3986 17.0178 22.5507 16.6666 21.6667 16.6666H16.6667C15.6667 16.6666 14.8333 17 14.3333 17.6666L5 26.6666" stroke="#B7131A" stroke-width="2" stroke-linecap="round" stroke-linejoin="round"/>
<path d="M24.083 22.3167L32.4997 14.4934C33.6597 13.3334 34.9997 11.4167 34.9997 9.58339C34.9999 8.65564 34.7185 7.74968 34.1928 6.98525C33.6671 6.22082 32.9218 5.63392 32.0554 5.30214C31.1891 4.97035 30.2424 4.90931 29.3405 5.12707C28.4387 5.34483 27.6242 5.83114 27.0047 6.52173C26.9616 6.56849 26.9093 6.60582 26.8511 6.63135C26.7928 6.65688 26.7299 6.67007 26.6663 6.67007C26.6028 6.67007 26.5399 6.65688 26.4816 6.63135C26.4234 6.60582 26.3711 6.56849 26.328 6.52173C25.7085 5.83114 24.894 5.34483 23.9921 5.12707C23.0903 4.90931 22.1436 4.97035 21.2772 5.30214C20.4108 5.63392 19.6655 6.22082 19.1398 6.98525C18.6141 7.74968 18.3328 8.65564 18.333 9.58339C18.333 11.5834 19.6697 13.3301 20.833 14.4934L26.6663 19.9167" stroke="#B7131A" stroke-width="2" stroke-linecap="round" stroke-linejoin="round"/>
<path d="M3.33301 25L13.333 35" stroke="#B7131A" stroke-width="2" stroke-linecap="round" stroke-linejoin="round"/>
<path d="M11.667 33.3333L14.3337 31C14.8337 30.3333 15.667 30 16.667 30H23.3337C25.167 30 26.8337 29.3333 28.0003 28L35.667 20.6667C36.3101 20.0589 36.6855 19.2205 36.7105 18.336C36.7355 17.4514 36.4081 16.5932 35.8003 15.95C35.1925 15.3069 34.3542 14.9315 33.4696 14.9065C32.5851 14.8815 31.7268 15.2089 31.0837 15.8167" stroke="#B7131A" stroke-width="2" stroke-linecap="round" stroke-linejoin="round"/>
</svg>
